PathFileType	4	(X/Y/Z)	C:\Users\Basilio\Documents\Thesis Gigler\squatting_fais\c3dfiles\075\SLS_back_pre3\markers_experimental.trc
DataRate	CameraRate	NumFrames	NumMarkers	Units	OrigDataRate	OrigDataStartFrame	OrigNumFrames
200.000000	200.000000	4	61	mm	200.000000	167	1336
Frame#	Time	FHD			LBHD			C7			T10			CLAV			LSHO			LUUPA			LMUPA			LDUPA			LLEP			LMEP			LRAD			LUL			LRFIN			RSHO			RUPA1			RMUPA			RDUPA			RLEP			RMEP			RRAD			RUL			RUFIN			LASI			RASI			USACR			LSACR			RSACR			LTHI1			LTHI2			LTHI3			LTHI4			LLFC			LMFC			LTIB1			LTIB2			LTIB3			LTIB4			LLMAL			LMMAL			LHEE			LMT1			LMT2			LMT5			RTHI			RTHI2			RTHI3			RTHI4			RLFC			RMFC			RTIB1			RTIB2			RTIB3			RTIB4			RLMAL			RMMAL			RHEE			RMT1			RMT2			RMT5			RBHD			
		X1	Y1	Z1	X2	Y2	Z2	X3	Y3	Z3	X4	Y4	Z4	X5	Y5	Z5	X6	Y6	Z6	X7	Y7	Z7	X8	Y8	Z8	X9	Y9	Z9	X10	Y10	Z10	X11	Y11	Z11	X12	Y12	Z12	X13	Y13	Z13	X14	Y14	Z14	X15	Y15	Z15	X16	Y16	Z16	X17	Y17	Z17	X18	Y18	Z18	X19	Y19	Z19	X20	Y20	Z20	X21	Y21	Z21	X22	Y22	Z22	X23	Y23	Z23	X24	Y24	Z24	X25	Y25	Z25	X26	Y26	Z26	X27	Y27	Z27	X28	Y28	Z28	X29	Y29	Z29	X30	Y30	Z30	X31	Y31	Z31	X32	Y32	Z32	X33	Y33	Z33	X34	Y34	Z34	X35	Y35	Z35	X36	Y36	Z36	X37	Y37	Z37	X38	Y38	Z38	X39	Y39	Z39	X40	Y40	Z40	X41	Y41	Z41	X42	Y42	Z42	X43	Y43	Z43	X44	Y44	Z44	X45	Y45	Z45	X46	Y46	Z46	X47	Y47	Z47	X48	Y48	Z48	X49	Y49	Z49	X50	Y50	Z50	X51	Y51	Z51	X52	Y52	Z52	X53	Y53	Z53	X54	Y54	Z54	X55	Y55	Z55	X56	Y56	Z56	X57	Y57	Z57	X58	Y58	Z58	X59	Y59	Z59	X60	Y60	Z60	X61	Y61	Z61	

168	0.835	-293.2278137207032	1717.787963867188	-816.2485961914065	-423.5359802246095	1593.531127929688	-897.5095214843752	-466.5752563476564	1476.05615234375	-836.3169555664065	-464.6631469726564	1150.997680664063	-838.9453125000002	-321.4114074707032	1421.837768554688	-825.8482666015627	-345.2286987304688	1451.0615234375	-984.5528564453127	-289.1443176269532	1265.838256835938	-1103.152954101563	-244.8572540283204	1260.845581054688	-1080.97412109375	-247.2382049560547	1211.456787109375	-1116.82373046875	-189.2162170410157	1147.203125	-1112.057861328125	-252.9364624023438	1103.580810546875	-1058.445922851563	nan	nan	nan	-27.29083061218262	1108.356323242188	-922.9548339843752	-19.4934139251709	1162.810913085938	-830.345397949219	-367.4185485839844	1443.573852539063	-668.6666870117189	-321.8565979003907	1259.484008789063	-548.4086303710939	-275.5528259277344	1252.269409179688	-563.3610839843751	-283.7911071777344	1202.815063476563	-528.9321899414064	-235.4721221923829	1149.813232421875	-522.1377563476564	-270.8788757324219	1089.999633789063	-572.6074218750001	-76.94641876220705	1165.990844726563	-747.0257568359376	-40.42110824584962	1135.316284179688	-686.2667846679689	-0.6204538941383363	1176.387817382813	-790.0742797851565	-291.8259582519532	988.9274902343752	-967.228698730469	-288.7449340820313	994.8191528320315	-713.4456176757814	-450.8240051269532	1050.912719726563	-841.444519042969	-455.522186279297	1019.489196777344	-868.494567871094	-455.2397460937501	1020.436279296875	-811.3651123046877	-318.5741882324219	747.0004272460939	-1048.625244140625	-279.8990478515626	671.4388427734376	-1052.998168945313	-233.6700592041016	680.0129394531251	-1035.6318359375	-301.8983459472657	615.7694702148439	-1047.024047851563	-300.0410156250001	508.3564453125001	-1045.042724609375	-258.4616394042969	488.3221435546876	-921.881042480469	-255.467514038086	381.1359252929688	-1017.364074707031	-319.2234497070313	350.7951965332032	-1067.536010742188	-279.2447509765626	338.5050048828126	-1048.715942382813	-293.3229675292969	258.6231384277344	-1022.801330566406	-385.7306213378907	129.0806732177735	-1045.646362304688	-355.7969665527344	138.0320739746094	-964.758972167969	-445.9228820800782	102.0407943725586	-1004.739196777344	-243.7882995605469	52.2821388244629	-973.0830078125002	-238.2961578369141	54.30112838745119	-1021.629577636719	-278.0789794921876	42.68496704101563	-1074.510498046875	-336.9887390136719	785.594421386719	-654.0125732421876	-295.8325500488282	735.4448242187501	-660.4474487304689	-265.3443298339844	743.7241821289064	-672.5552978515626	-318.7888183593751	653.3367919921876	-673.1983032226564	-326.0171203613282	499.9197082519532	-709.5051879882814	-294.5810546875001	499.937957763672	-835.4011230468752	-285.1937561035157	354.4097595214844	-785.8581542968752	-337.9643859863282	276.8721008300782	-729.9465942382814	-303.2760620117188	271.3973999023438	-763.8756103515626	-318.6119995117188	230.2224578857422	-802.1320800781252	-393.1091308593751	115.025993347168	-768.3995361328127	-365.3554382324219	139.9200286865235	-848.972351074219	-450.6678161621095	97.40739440917972	-824.7517700195315	-246.6860809326172	57.57703018188478	-836.2773437500002	-246.126693725586	57.27365875244142	-793.6213989257815	-283.7944030761719	35.88574218750001	-741.9033203125001	nan	nan	nan	
169	0.84	-293.2390136718751	1717.762329101563	-815.418640136719	-423.520721435547	1593.396850585938	-896.748718261719	-466.4849548339845	1475.993408203125	-835.5616455078127	-464.8242187500001	1150.795532226563	-838.2846679687502	-321.2554321289063	1421.746459960938	-824.9568481445315	-345.1164855957032	1450.957275390625	-983.6958618164065	-288.4843750000001	1265.85986328125	-1101.83740234375	-244.5053710937501	1261.181640625	-1080.023803710938	-245.9435577392579	1211.779052734375	-1115.492919921875	-187.8726043701172	1147.603149414063	-1110.67431640625	-251.2774047851563	1103.974853515625	-1057.097778320313	nan	nan	nan	-26.34734535217286	1108.932861328125	-922.1910400390627	-17.61214447021485	1163.354125976563	-829.3887939453127	-367.2027587890626	1443.546142578125	-667.8860473632814	-321.0469055175782	1259.678466796875	-547.6169433593751	-274.7479553222657	1252.736083984375	-562.6714477539064	-282.7513122558594	1203.242919921875	-528.1610717773439	-234.055648803711	1150.550170898438	-521.3451538085939	-269.2186889648438	1090.522094726563	-571.6602172851564	-75.30196380615236	1166.562866210938	-746.0281372070314	-38.71704101562501	1136.314331054688	-685.3321533203126	1.002482414245606	1177.251708984375	-789.1143188476565	-292.1055297851563	988.8401489257815	-966.5191040039065	-288.8210144042969	994.6523437500002	-712.6860961914064	-450.9281311035157	1050.854248046875	-840.6585083007815	-455.6526794433595	1019.443969726563	-867.8079223632815	-455.2753906250001	1020.402221679688	-810.6284179687502	-317.7343444824219	746.9412841796876	-1048.211181640625	-279.3652038574219	671.7180175781251	-1052.837768554688	-233.1272125244141	680.3829956054689	-1035.45947265625	-301.3362121582032	615.9210205078126	-1046.875610351563	-298.9825744628907	508.5672912597657	-1045.07568359375	-257.4654846191407	488.401580810547	-921.835876464844	-254.7904663085938	381.3303222656251	-1017.573913574219	-318.7626342773438	351.0515136718751	-1067.553100585938	-278.5511169433594	338.8968811035157	-1048.887329101563	-292.9447937011719	258.8401489257813	-1022.958740234375	-385.5538940429689	129.5840148925782	-1045.961791992188	-355.6187744140626	138.3021545410157	-965.006042480469	-445.837371826172	102.2721405029297	-1004.875305175781	-243.8334655761719	52.3880081176758	-973.107604980469	-238.2989196777344	54.29501342773439	-1021.736389160156	-278.0919189453126	42.66656112670899	-1074.530517578125	-337.1232604980469	785.409118652344	-653.4629516601564	-295.8691711425782	735.3204345703126	-660.0541992187501	-265.4537048339844	743.4980468750001	-671.9923095703126	-318.8426818847657	653.2066650390626	-672.7113647460939	-326.1146240234376	499.8062133789064	-709.1906127929689	-294.5376586914063	500.0327758789064	-835.1516113281252	-285.1632080078126	354.3676147460938	-785.6026000976565	-337.9656066894532	276.7636108398438	-729.7662963867189	-303.2843322753907	271.3522644042969	-763.7299194335939	-318.5411682128907	230.1441345214844	-801.9045410156252	-393.1338500976564	114.9665679931641	-768.3850708007815	-365.4846496582032	139.9944915771485	-848.9654541015627	-450.6080627441407	97.4203796386719	-824.7070312500002	-246.7115325927735	57.60952758789064	-836.325866699219	-246.1561279296876	57.28714752197267	-793.6001586914065	-283.7418518066407	35.87599182128907	-741.8791503906251	nan	nan	nan	
170	0.845	-293.1719665527344	1717.822265625	-814.6389770507815	-423.5095825195314	1593.276489257813	-895.722351074219	-466.4278259277345	1476.013061523438	-834.6978759765627	-464.9118957519532	1150.7939453125	-837.4118652343752	-321.1882629394532	1421.6708984375	-824.2175292968752	-344.8872070312501	1450.926879882813	-982.8267211914065	-288.2432556152344	1265.636108398438	-1100.519775390625	-243.6569213867188	1261.177124023438	-1078.161010742188	-244.9399414062501	1211.953857421875	-1114.141235351563	-186.5201721191407	1148.049194335938	-1109.125732421875	-249.6562957763672	1104.170043945313	-1055.599365234375	nan	nan	nan	-23.75777244567871	1109.323486328125	-920.6397094726565	-16.10812568664551	1163.978271484375	-828.3775634765627	-366.9203491210938	1443.47412109375	-667.1182250976564	-320.1463012695313	1259.953979492188	-546.8058471679689	-273.8363037109376	1253.190063476563	-561.7069702148439	-281.5393981933594	1203.654663085938	-527.2464599609376	-232.7092895507813	1151.256469726563	-520.4802856445314	-267.5446472167969	1091.005126953125	-570.7653808593751	-73.49385833740236	1167.555541992188	-744.9918823242189	-36.97512817382813	1137.258666992188	-684.2755126953126	2.792283058166504	1178.032348632813	-788.1938476562502	-292.2114562988282	988.7160644531252	-965.931335449219	-288.7427062988282	994.583923339844	-711.9187622070314	-450.9610595703126	1050.842163085938	-839.9556884765627	-455.7879028320314	1019.421752929688	-867.2117919921877	-455.3625793457032	1020.334716796875	-809.961364746094	-317.5257873535157	747.0921020507814	-1047.76416015625	-278.8805541992188	671.8169555664064	-1052.572509765625	-232.9516906738282	680.6727905273439	-1035.00732421875	-300.7534484863282	616.1078491210939	-1046.749267578125	-298.1669921875001	508.7615356445314	-1045.176391601563	-256.5582275390626	488.5117492675782	-921.820007324219	-253.5953674316407	381.4302368164063	-1017.43701171875	-318.0888671875001	351.3999328613282	-1067.611450195313	-278.0130310058594	339.2002258300782	-1048.926147460938	-292.4879760742188	259.1654357910157	-1023.117126464844	-385.4387207031251	129.951400756836	-1046.226806640625	-355.3240356445313	138.6074523925782	-965.2961425781252	-445.6406250000001	102.7279434204102	-1005.082458496094	-243.7455596923829	52.51368331909181	-973.1955566406252	-238.2169342041016	54.25755310058595	-1021.806091308594	-278.1089172363282	42.62067031860352	-1074.58056640625	-337.1914062500001	785.300231933594	-652.9606933593751	-295.8808288574219	735.2453002929689	-659.4552612304689	-265.5547180175782	743.4073486328126	-671.5139160156251	-318.9326171875001	653.0479125976564	-672.2589721679689	-326.1722106933594	499.706268310547	-708.8883666992189	-294.4512634277344	499.9915466308595	-834.8925781250002	-284.6585083007813	354.2814941406251	-784.9107666015627	-337.9760742187501	276.6821289062501	-729.5686035156251	-303.1618957519532	271.2993469238282	-763.5465087890626	-318.4311218261719	230.1292572021485	-801.7095336914065	-393.1602783203126	114.9385757446289	-768.2732543945315	-365.5400085449219	139.9678497314453	-848.9306640625002	-450.7073364257814	97.3705978393555	-824.6971435546877	-246.7035217285157	57.57409667968751	-836.2548828125002	-246.1539764404297	57.27554321289064	-793.5906372070315	-283.7467956542969	35.84829711914063	-741.8739624023439	nan	nan	nan	
171	0.85	-293.0907592773438	1717.666381835938	-813.8308105468752	-423.5113830566407	1593.246948242188	-894.7420043945315	-466.3596801757814	1475.932495117188	-833.9160766601565	-464.8211975097657	1150.786865234375	-836.5775146484377	-320.9926757812501	1421.616577148438	-823.4104614257815	-344.6617431640626	1450.794067382813	-981.839782714844	-286.7654113769532	1265.918212890625	-1099.4267578125	-242.9408111572266	1261.66162109375	-1077.479125976563	-243.8710327148438	1212.169677734375	-1112.880493164063	-185.2299194335938	1148.549072265625	-1107.8447265625	-248.400375366211	1104.494140625	-1054.230224609375	nan	nan	nan	-22.1183032989502	1109.863159179688	-919.6677856445315	-14.13878440856934	1164.647338867188	-827.2761230468752	-366.6755371093751	1443.482177734375	-666.3688354492189	-319.2612609863282	1260.216430664063	-546.0217895507814	-272.9800109863282	1253.682739257813	-561.0187377929689	-280.5047302246094	1204.078247070313	-526.4679565429689	-231.3089294433594	1151.955200195313	-519.8034057617189	-265.7872009277344	1091.5595703125	-570.0252075195314	-71.76226806640626	1168.199951171875	-743.9545898437501	-35.21300506591798	1138.233764648438	-683.1655883789064	4.504913806915284	1178.77197265625	-787.2160644531252	-292.3276062011719	988.8002929687502	-965.2039794921877	-288.6919860839844	994.493835449219	-711.2998657226564	-451.000457763672	1050.899047851563	-839.255065917969	-455.9857177734376	1019.40380859375	-866.5076293945315	-455.4318237304689	1020.352233886719	-809.294616699219	-317.3147277832032	747.2053222656251	-1047.390014648438	-278.4193420410157	672.1241455078126	-1052.41845703125	-232.5972137451172	680.9938354492189	-1034.827758789063	-300.2721862792969	616.3323974609376	-1046.682250976563	-297.3199157714844	509.0501403808595	-1045.30810546875	-255.7663726806641	488.6018981933595	-921.849304199219	-253.0252380371094	381.6539916992188	-1017.586975097656	-317.6412658691407	351.9819641113282	-1067.690307617188	-277.2520141601563	339.6124877929688	-1049.030151367188	-291.9934997558594	259.5335693359376	-1023.327880859375	-385.2440795898439	130.2312316894532	-1046.458740234375	-355.0440673828126	139.0784454345703	-965.5249023437502	-445.5635986328126	103.1573181152344	-1005.235473632813	-243.8037261962891	52.63689041137697	-973.337341308594	-238.2329254150391	54.23610687255861	-1021.87158203125	-277.9658203125001	42.60652923583985	-1074.543212890625	-337.2590942382813	785.2056884765627	-652.3572998046876	-295.9709777832032	735.1334228515626	-658.8944702148439	-265.6168823242188	743.2769165039064	-670.8974609375001	-319.0227661132813	652.9583740234376	-671.7557373046876	-326.2297668457032	499.6470642089845	-708.5125122070314	-294.5573120117188	500.0170288085939	-834.4014892578127	-285.1867065429688	354.2357482910157	-785.0777587890627	-338.0230407714844	276.5801696777344	-729.4046630859376	-303.0738525390626	271.2067871093751	-763.3026123046876	-318.5383911132813	230.1728668212891	-801.5669555664065	-393.1533203125001	114.8801803588867	-768.2900390625002	-365.6115112304688	139.951904296875	-848.8065185546877	-450.6774291992189	97.38627624511722	-824.6624755859377	-246.7108612060547	57.54518890380861	-836.275817871094	-246.0862274169922	57.2101516723633	-793.5927734375002	-283.7526855468751	35.81732559204102	-741.8752441406251	nan	nan	nan	
